<svg width="19" height="19" viewBox="0 0 19 19" fill="none" xmlns="http://www.w3.org/2000/svg">
<g clip-path="url(#clip0_4113_1276)">
<path d="M13.25 16.25V14.75C13.25 13.9543 12.9339 13.1913 12.3713 12.6287C11.8087 12.0661 11.0456 11.75 10.25 11.75H4.25C3.45435 11.75 2.69129 12.0661 2.12868 12.6287C1.56607 13.1913 1.25 13.9543 1.25 14.75V16.25M17.75 16.25V14.75C17.7495 14.0853 17.5283 13.4396 17.121 12.9142C16.7138 12.3889 16.1436 12.0137 15.5 11.8475M12.5 2.8475C13.1453 3.01273 13.7173 3.38803 14.1257 3.91423C14.5342 4.44044 14.7559 5.08762 14.7559 5.75375C14.7559 6.41988 14.5342 7.06706 14.1257 7.59327C13.7173 8.11947 13.1453 8.49477 12.5 8.66M10.25 5.75C10.25 7.40685 8.90685 8.75 7.25 8.75C5.59315 8.75 4.25 7.40685 4.25 5.75C4.25 4.09315 5.59315 2.75 7.25 2.75C8.90685 2.75 10.25 4.09315 10.25 5.75Z" stroke="#FBFBFB" stroke-width="2" stroke-linecap="round" stroke-linejoin="round"/>
</g>
<defs>
<clipPath id="clip0_4113_1276">
<rect width="18" height="18" fill="white" transform="translate(0.5 0.5)"/>
</clipPath>
</defs>
</svg>
